<svg aria-hidden="true" style="position: absolute; width: 0; height: 0; overflow: hidden;" version="1.1" xmlns="http://www.w3.org/2000/svg" xmlns:xlink="http://www.w3.org/1999/xlink">
<defs>
<symbol id="face-regular" viewBox="0 0 32 32">
<path d="M26.4 16c0-5.745-4.655-10.4-10.4-10.4s-10.4 4.655-10.4 10.4 4.655 10.4 10.4 10.4 10.4-4.655 10.4-10.4zM3.2 16c0-7.070 5.73-12.8 12.8-12.8s12.8 5.73 12.8 12.8-5.73 12.8-12.8 12.8-12.8-5.73-12.8-12.8zM12.065 19.17c0.75 0.78 2.055 1.63 3.935 1.63s3.185-0.85 3.935-1.63c0.46-0.48 1.22-0.495 1.695-0.035s0.495 1.22 0.035 1.695c-1.105 1.15-3 2.37-5.665 2.37s-4.56-1.22-5.665-2.37c-0.46-0.48-0.445-1.24 0.035-1.695s1.24-0.445 1.695 0.035zM10.4 13.6c0-0.885 0.715-1.6 1.6-1.6s1.6 0.715 1.6 1.6-0.715 1.6-1.6 1.6-1.6-0.715-1.6-1.6zM20 12c0.885 0 1.6 0.715 1.6 1.6s-0.715 1.6-1.6 1.6-1.6-0.715-1.6-1.6 0.715-1.6 1.6-1.6z"></path>
</symbol>
<symbol id="face-solid" viewBox="0 0 32 32">
<path d="M16 28.8c7.070 0 12.8-5.73 12.8-12.8s-5.73-12.8-12.8-12.8-12.8 5.73-12.8 12.8 5.73 12.8 12.8 12.8zM11.47 19.295c1.020 1.4 2.67 2.305 4.53 2.305s3.51-0.905 4.53-2.305c0.39-0.535 1.14-0.655 1.675-0.265s0.655 1.14 0.265 1.675c-1.455 1.995-3.81 3.295-6.47 3.295s-5.015-1.3-6.47-3.295c-0.39-0.535-0.27-1.285 0.265-1.675s1.285-0.27 1.675 0.265zM10.4 13.6c0-0.885 0.715-1.6 1.6-1.6s1.6 0.715 1.6 1.6-0.715 1.6-1.6 1.6-1.6-0.715-1.6-1.6zM20 12c0.885 0 1.6 0.715 1.6 1.6s-0.715 1.6-1.6 1.6-1.6-0.715-1.6-1.6 0.715-1.6 1.6-1.6z"></path>
</symbol>
</defs>
</svg>
